<svg xmlns="http://www.w3.org/2000/svg" viewBox="0 0 367.37 44.75"><defs><style>.cls-1{fill:#f4f4f4;}</style></defs><g id="Calque_2" data-name="Calque 2"><g id="Calque_1-2" data-name="Calque 1"><path class="cls-1" d="M67.41,44.71H29.15c-5.87,0-11.75.13-17.61-.05C3.77,44.42.37,41.15.05,33.49A66.13,66.13,0,0,1,.59,22.42c.49-3.84,3-6.21,6.8-6.93a34.3,34.3,0,0,1,6.32-.56c12.72,0,25.44,0,38.68,0L51.9,7.58H.13V.22C1.06.16,1.9.05,2.74.05c17.35,0,34.71,0,52.07,0C63.8.09,67.2,3.2,67.36,12,67.56,22.73,67.41,33.47,67.41,44.71ZM52.18,37.05V22.59H15.52V37.05Z"/><path class="cls-1" d="M314.92,29.85c.2,2.65.37,4.82.55,7.3h51.77v7.38c-1.05.06-2,.17-3,.17q-25.68,0-51.37,0c-9.42,0-12.69-3.1-12.9-12.38-.15-6.93-.19-13.88,0-20.8C300.31,3.31,303.67.13,311.94.07q21.74-.13,43.49,0c8.31.05,11.6,3.21,11.9,11.44a66.2,66.2,0,0,1-.63,11.07c-.49,3.71-3,5.94-6.64,6.65a34.24,34.24,0,0,1-6.32.58C341,29.88,328.27,29.85,314.92,29.85Zm.51-7.7h36.46V7.7H315.43Z"/><path class="cls-1" d="M187.82,7.56V44.42H172.66c-.08-.87-.25-1.81-.26-2.75,0-9.65,0-19.3,0-28.95,0-7.93,4-12.18,12-12.51,6.48-.27,13-.16,19.48-.16q35.58,0,71.18,0a58.24,58.24,0,0,1,6.74.24c6.28.75,10.1,4.46,10.56,10.12.11,1.35.08,2.72.08,4.08V44.42H277.39V40.53c0-9.52,0-19,0-28.57,0-3.06-.75-4.52-4.46-4.5-27,.19-53.95.1-80.92.1Z"/><path class="cls-1" d="M142.48,44.54H127.15V7.72H90.28V44.51H74.89V41q0-13.94,0-27.86C74.91,4.68,78.56.58,87.3.24c9.48-.37,19-.18,28.49-.19,5,0,10-.1,15,.18,7.66.42,11.64,4.63,11.68,12.11C142.52,23,142.48,33.6,142.48,44.54Z"/><path class="cls-1" d="M164.85,15.16V44.45H150.14V15.16Z"/><path class="cls-1" d="M164.75,8.22H150.18V1.13h14.57Z"/></g></g></svg>