<svg xmlns="http://www.w3.org/2000/svg" viewBox="0 0 258.96 258.99"><defs><style>.cls-1{fill:#563d7c;}.cls-2{fill:#fefefe;}</style></defs><g id="Calque_2" data-name="Calque 2"><g id="Calque_1-2" data-name="Calque 1"><path class="cls-1" d="M129,259c-28,0-56,.1-84,0-18.2-.09-31.92-8-40.45-24.32A43.27,43.27,0,0,1,0,214.34Q0,129.62.05,44.9C.09,18.91,18.82.11,44.76.07q84.72-.13,169.44,0c25.94,0,44.67,18.84,44.71,44.83q.12,84.46,0,168.94c0,26.29-18.72,45-45,45.09C185.62,259,157.3,259,129,259Z"/><path class="cls-2" d="M168,126.44c28.37,9.64,37.35,47.13,16,67-9.36,8.7-21.16,12.6-33.72,13.23-25.46,1.29-51,.29-76.44.61-3,0-3.57-1.17-3.57-3.84q.09-71.7,0-143.4c0-2.6.46-4,3.53-3.9,26.3.47,52.64-1.09,78.9.89,12.68,1,24.18,5.51,31,17.23,8.44,14.49,7.61,39.45-13.32,50C169.53,124.66,168.4,124.83,168,126.44Z"/><path class="cls-1" d="M124,138.91c8,0,16-.33,24,.07,12.41.62,20.28,8.81,20.94,21.09.73,13.52-6.08,22.68-18.47,25a62.85,62.85,0,0,1-11.94.77q-18.73,0-37.47,0c-2.22,0-4.2.35-4.16-3.12q.24-20.49,0-41c0-2.92,1.35-3.17,3.66-3.15,7.82.08,15.65,0,23.48,0Z"/><path class="cls-1" d="M122.05,78c7,0,14-.19,20.94,0,12,.41,18.54,6.66,19,17.92.53,13.36-5.91,21.93-17.89,23.13-12.76,1.28-25.58.35-38.36.52-8.83.11-8.83,0-8.83-8.86,0-9.31.16-18.62-.08-27.92-.1-3.72.64-5.27,4.8-5,6.79.38,13.62.1,20.43.1Z"/></g></g></svg>