<svg xmlns="http://www.w3.org/2000/svg" viewBox="0 0 442.41 132.3"><defs><style>.cls-1{fill:#fefefe;}.cls-2{fill:#423426;}</style></defs><g id="Calque_2" data-name="Calque 2"><g id="Calque_1-2" data-name="Calque 1"><path class="cls-1" d="M88.88,36.39c7-5,13-11.17,20-16.18C139.69-1.83,172.43-6.27,207.41,9a32.83,32.83,0,0,1,11.05,7.5c1.78,1.89,3,2.3,5.32.37C236.15,6.57,250.56,1.36,266.57.52c16.41-.86,32.43.65,47.48,8,11.38,5.54,22,12.2,31.27,20.87A43.86,43.86,0,0,0,353,35.6c2.32,1,4.6,4.66,7,.13,6.12-14.42,17.81-20.19,32.67-20.95,10.14-.51,19.78,1.12,28.61,6.52,12.58,7.71,19.2,19.41,20.39,33.59.85,10,1.17,20.24-.58,30.33-2.71,15.55-11.39,27.09-24.44,35.29a73.28,73.28,0,0,1-40.63,11.18c-13.1-.15-26.29.85-39.19-2.19-17.36-4.09-33.64-11.09-49.56-19C271.72,102.72,256,95.12,239,91a73,73,0,0,0-38,.75c-16.43,4.82-31.89,12.08-47.23,19.62-19.07,9.38-38.54,18.51-60,19.9-19.1,1.25-38.76,2.8-57-5.2C17.24,117.54,3.59,103.8,1,81.42-.6,68.29-.68,55.37,4,42.7c5.86-16,22.44-27.9,39.35-27.94,5.8,0,11.56,0,17.26,1.52C71.2,19.18,78.65,25.63,83,35.72,84.58,39.25,86.83,36.93,88.88,36.39Z"/><path class="cls-2" d="M59.25,61.47c.38-1.69.72-2.79.86-3.93.42-3.7-.73-6.74-4.45-8a7.84,7.84,0,0,0-9.35,2.86,13.74,13.74,0,0,0,2.42,18.86c7,5.7,14.72,6.42,22.84,2.55,9-4.3,16-11.35,23.12-18,11.7-10.9,23.24-22,37.51-29.58C156,13.64,179.85,12.48,203.36,27c7.48,4.6,12.89,11.45,17.95,18.79C224,42.35,226.38,39,229.2,36c19-19.86,42.09-23.35,67.46-15.76C312.29,24.94,325,34.66,337,45.43c8.41,7.57,16.13,15.92,25.21,22.71,7,5.23,14.28,10,23.8,7.43,8.14-2.16,13.39-8.22,13.19-15.42-.2-6.83-4.66-11.62-10.23-11-5.35.61-7,4.23-5.44,12.63-5.32-3.69-8.27-8-8.35-14.18-.09-6.47,3.38-10.68,8.7-13.47,14.22-7.45,34-.2,39.13,15.66,9.07,28.2.86,54.21-31.87,63.07-21.62,5.86-43.19,3.54-64.18-4.08-16.31-5.91-31.58-14.17-47.41-21.15-13.71-6-27.5-12-42.46-14.23-23-3.45-44.67,1.25-65.57,10.68-16.39,7.39-32.64,15.08-49.14,22.2-21.79,9.41-44.57,12.47-67.82,7.33-18.13-4-32.16-13.66-36.89-33a49.08,49.08,0,0,1,2.24-31.32c5.88-14,22-21.37,36-16.49,5.91,2.07,10.71,5.59,11.64,12.4C68.44,52.16,65.92,57.19,59.25,61.47Z"/></g></g></svg>